<svg width="24" height="24" viewBox="0 0 24 24" fill="none" xmlns="http://www.w3.org/2000/svg">

<g clip-path="url(#clip0_0_1)">



<path d="M19.65 5.32765H17.015C16.8177 4.38711 16.2957 3.54201 15.5371 2.93479C14.7784 2.32757 13.8294 1.99535 12.85 1.99414L11.15 1.99414C10.1706 1.99535 9.22162 2.32757 8.46294 2.93479C7.70425 3.54201 7.18228 4.38711 6.985 5.32765H4.35C4.12457 5.32765 3.90837 5.41545 3.74896 5.57174C3.58955 5.72803 3.5 5.94 3.5 6.16103C3.5 6.38206 3.58955 6.59403 3.74896 6.75032C3.90837 6.90661 4.12457 6.99441 4.35 6.99441H5.2V17.8283C5.20135 18.933 5.64955 19.9921 6.44629 20.7733C7.24302 21.5544 8.32324 21.9939 9.45 21.9952H14.55C15.6768 21.9939 16.757 21.5544 17.5537 20.7733C18.3505 19.9921 18.7987 18.933 18.8 17.8283V6.99441H19.65C19.8754 6.99441 20.0916 6.90661 20.251 6.75032C20.4104 6.59403 20.5 6.38206 20.5 6.16103C20.5 5.94 20.4104 5.72803 20.251 5.57174C20.0916 5.41545 19.8754 5.32765 19.65 5.32765ZM11.15 3.6609H12.85C13.3772 3.66153 13.8914 3.82205 14.3219 4.12046C14.7524 4.41886 15.0782 4.84054 15.2547 5.32765H8.74535C8.9218 4.84054 9.24762 4.41886 9.67813 4.12046C10.1086 3.82205 10.6228 3.66153 11.15 3.6609ZM17.1 17.8283C17.1 18.4914 16.8313 19.1273 16.3531 19.5962C15.8749 20.065 15.2263 20.3285 14.55 20.3285H9.45C8.7737 20.3285 8.1251 20.065 7.64688 19.5962C7.16866 19.1273 6.9 18.4914 6.9 17.8283V6.99441H17.1V17.8283Z" fill="#D20000"/>
<path d="M10.4524 16.8643C10.6574 16.8643 10.8539 16.7765 10.9988 16.6202C11.1437 16.4639 11.2251 16.2519 11.2251 16.0309V11.0306C11.2251 10.8096 11.1437 10.5976 10.9988 10.4414C10.8539 10.2851 10.6574 10.1973 10.4524 10.1973C10.2475 10.1973 10.0509 10.2851 9.90601 10.4414C9.7611 10.5976 9.67969 10.8096 9.67969 11.0306V16.0309C9.67969 16.2519 9.7611 16.4639 9.90601 16.6202C10.0509 16.7765 10.2475 16.8643 10.4524 16.8643Z" fill="#D20000"/>
<path d="M13.5462 16.8643C13.7511 16.8643 13.9477 16.7765 14.0926 16.6202C14.2375 16.4639 14.3189 16.2519 14.3189 16.0309V11.0306C14.3189 10.8096 14.2375 10.5976 14.0926 10.4414C13.9477 10.2851 13.7511 10.1973 13.5462 10.1973C13.3412 10.1973 13.1447 10.2851 12.9998 10.4414C12.8548 10.5976 12.7734 10.8096 12.7734 11.0306V16.0309C12.7734 16.2519 12.8548 16.4639 12.9998 16.6202C13.1447 16.7765 13.3412 16.8643 13.5462 16.8643Z" fill="#D20000"/>
</g>
<rect x="-1950.5" y="-389.5" width="2132" height="1079" stroke="black"/>
<defs>
<clipPath id="clip0_0_1">
<rect x="-1951" y="-390" width="2133" height="1080" fill="white"/>
</clipPath>
</defs>
</svg>
