<svg width="24" height="24" viewBox="0 0 24 24" fill="none" xmlns="http://www.w3.org/2000/svg">

<g clip-path="url(#clip0_0_1)">


<path d="M12 2C6.48583 2 2 6.48583 2 12C2 17.5142 6.48583 22 12 22C17.5142 22 22 17.5142 22 12C22 6.48583 17.5142 2 12 2ZM12 20.3333C7.405 20.3333 3.66667 16.595 3.66667 12C3.66667 7.405 7.405 3.66667 12 3.66667C16.595 3.66667 20.3333 7.405 20.3333 12C20.3333 16.595 16.595 20.3333 12 20.3333ZM13.1492 7.31583L8.22083 12.2442C7.43417 13.0308 7 14.0775 7 15.19V16.1667C7 16.6275 7.3725 17 7.83333 17H8.81C9.9225 17 10.9692 16.5658 11.7558 15.7792L16.6842 10.8508C17.6592 9.87583 17.6592 8.29083 16.6842 7.31583C15.7092 6.34083 14.1242 6.34083 13.1492 7.31583ZM10.5775 14.6008C10.1117 15.0667 9.4675 15.3333 8.81 15.3333H8.66667V15.19C8.66667 14.5325 8.93333 13.8883 9.39917 13.4225L12.28 10.5417L13.4583 11.72L10.5775 14.6008ZM15.5058 9.6725L14.6367 10.5417L13.4583 9.36333L14.3275 8.49417C14.6533 8.16833 15.18 8.16833 15.5058 8.49417C15.8317 8.82 15.8308 9.3475 15.5058 9.6725Z" fill="#0075FF"/>
</g>

<defs>
<clipPath id="clip0_0_1">
<rect x="-1905" y="-390" width="2133" height="1080"/>
</clipPath>
</defs>
</svg>
