<svg width="24" height="24" viewBox="0 0 24 24" fill="none" xmlns="http://www.w3.org/2000/svg">

<g clip-path="url(#clip0_0_1)">




<path d="M18.6437 10.6875C18.8626 9.72508 18.8696 8.72654 18.664 7.76114C18.4585 6.79575 18.0455 5.88662 17.4535 5.09681C16.8615 4.30699 16.1048 3.65541 15.2359 3.18724C14.367 2.71908 13.4066 2.44554 12.4214 2.38561C11.4362 2.32567 10.4497 2.48077 9.53046 2.84014C8.61118 3.19951 7.78108 3.75456 7.09774 4.46679C6.4144 5.17901 5.89417 6.03137 5.57313 6.96473C5.2521 7.89809 5.13795 8.89011 5.2386 9.87199L7.65015 9.6248C7.58536 8.9927 7.65885 8.35406 7.86552 7.7532C8.07219 7.15234 8.40709 6.60362 8.847 6.14512C9.28692 5.68661 9.82131 5.32929 10.4131 5.09794C11.0049 4.86658 11.6399 4.76674 12.2742 4.80532C12.9084 4.84391 13.5267 5.02 14.0861 5.32139C14.6455 5.62278 15.1326 6.04225 15.5137 6.5507C15.8948 7.05915 16.1607 7.64442 16.293 8.26591C16.4253 8.88739 16.4208 9.53022 16.2799 10.1498L18.6437 10.6875Z" fill="#E3DFBD"/>
<rect x="3.5" y="9.5332" width="17.0126" height="12.4192" rx="2" fill="#F8DF00"/>
<circle cx="12.0059" cy="14.7442" r="1.70126" fill="white"/>
<rect x="10.9453" y="15.6992" width="2.12657" height="3.18986" rx="1" fill="white"/>
</g>
<rect x="-1993.5" y="-389.5" width="2132" height="1079" stroke="black"/>
<defs>
<clipPath id="clip0_0_1">
<rect x="-1994" y="-390" width="2133" height="1080" fill="white"/>
</clipPath>
</defs>
</svg>
