<svg width="24" height="24" viewBox="0 0 24 24" fill="none" xmlns="http://www.w3.org/2000/svg">


<path d="M11.5 3.57143C12.277 3.57143 13.0365 3.80183 13.6826 4.23351C14.3286 4.66519 14.8322 5.27875 15.1295 5.9966C15.4269 6.71445 15.5047 7.50436 15.3531 8.26643C15.2015 9.02849 14.8273 9.7285 14.2779 10.2779C13.7285 10.8273 13.0285 11.2015 12.2664 11.3531C11.5044 11.5047 10.7145 11.4269 9.9966 11.1295C9.27875 10.8322 8.66519 10.3286 8.23351 9.6826C7.80184 9.03655 7.57143 8.277 7.57143 7.5C7.57143 6.45808 7.98533 5.45883 8.72208 4.72208C9.45883 3.98533 10.4581 3.57143 11.5 3.57143ZM11.5 2C10.4122 2 9.34884 2.32257 8.44437 2.92692C7.5399 3.53126 6.83495 4.39025 6.41866 5.39524C6.00238 6.40023 5.89346 7.5061 6.10568 8.573C6.3179 9.63989 6.84173 10.6199 7.61091 11.3891C8.3801 12.1583 9.36011 12.6821 10.427 12.8943C11.4939 13.1065 12.5998 12.9976 13.6048 12.5813C14.6098 12.1651 15.4687 11.4601 16.0731 10.5556C16.6774 9.65116 17 8.5878 17 7.5C17 6.04131 16.4205 4.64236 15.3891 3.61091C14.3576 2.57946 12.9587 2 11.5 2Z" fill="#241D75"/>
<path d="M19.5 22H17.95V18.875C17.95 18.0462 17.5417 17.2513 16.815 16.6653C16.0883 16.0792 15.1027 15.75 14.075 15.75H9.425C8.39729 15.75 7.41166 16.0792 6.68496 16.6653C5.95826 17.2513 5.55 18.0462 5.55 18.875V22H4V18.875C4 17.7147 4.57156 16.6019 5.58895 15.7814C6.60633 14.9609 7.9862 14.5 9.425 14.5H14.075C15.5138 14.5 16.8937 14.9609 17.9111 15.7814C18.9284 16.6019 19.5 17.7147 19.5 18.875V22Z" fill="#241D75"/>
</svg>
