<svg width="24" height="24" viewBox="0 0 24 24" fill="none" xmlns="http://www.w3.org/2000/svg">


<path d="M16.2106 20.052H17.8948C18.5333 20.052 19.0527 19.5326 19.0527 18.8941V13.8415C19.0527 13.203 18.5333 12.6836 17.8948 12.6836H16.2106C15.5722 12.6836 15.0527 13.203 15.0527 13.8415V18.894C15.0527 19.5326 15.5722 20.052 16.2106 20.052ZM15.6843 13.8415C15.6843 13.5512 15.9204 13.3152 16.2107 13.3152H17.8949C18.1851 13.3152 18.4212 13.5512 18.4212 13.8415V18.894C18.4212 19.1843 18.1851 19.4204 17.8949 19.4204H16.2107C15.9204 19.4204 15.6843 19.1843 15.6843 18.894V13.8415Z" fill="white"/>
<path d="M21.9074 21.6188L21.0653 20.7767C20.9419 20.6534 20.742 20.6534 20.6187 20.7767C20.4953 20.9 20.4953 21.1 20.6187 21.2233L20.9217 21.5263H3.99997C3.70974 21.5263 3.47365 21.2903 3.47365 21V4.07837L3.77669 4.38142C3.89997 4.50474 4.09993 4.50474 4.22325 4.38142C4.34657 4.25814 4.34657 4.05818 4.22325 3.93486L3.38115 3.09272C3.25787 2.9694 3.05791 2.9694 2.93459 3.09272L2.09249 3.93482C1.96917 4.0581 1.96917 4.25806 2.09249 4.38138C2.21577 4.5047 2.41573 4.5047 2.53905 4.38138L2.84209 4.07833V21C2.84209 21.6385 3.36154 22.1579 3.99997 22.1579H20.9216L20.6186 22.4609C20.4953 22.5842 20.4953 22.7842 20.6186 22.9075C20.6803 22.9692 20.7611 23 20.8419 23C20.9227 23 21.0035 22.9691 21.0652 22.9075L21.9073 22.0654C22.0307 21.9421 22.0307 21.7422 21.9074 21.6188Z" fill="white"/>
<path d="M6.10515 20.0546H7.78935C8.42782 20.0546 8.94723 19.5352 8.94723 18.8967V9.21257C8.94723 8.5741 8.42782 8.05469 7.78935 8.05469H6.10515C5.46671 8.05469 4.94727 8.57414 4.94727 9.21257V18.8967C4.94727 19.5352 5.46671 20.0546 6.10515 20.0546ZM5.57886 9.21257C5.57886 8.92234 5.81495 8.68624 6.10518 8.68624H7.78939C8.07962 8.68624 8.31571 8.92234 8.31571 9.21257V18.8967C8.31571 19.1869 8.07962 19.423 7.78939 19.423H6.10518C5.81495 19.423 5.57886 19.1869 5.57886 18.8967V9.21257Z" fill="white"/>
<path d="M11.1577 20.0525H12.8419C13.4804 20.0525 13.9998 19.5331 13.9998 18.8946V4.15788C13.9998 3.51945 13.4804 3 12.8419 3H11.1577C10.5193 3 9.99986 3.51945 9.99986 4.15788V18.8946C9.99986 19.5331 10.5193 20.0525 11.1577 20.0525ZM10.6314 4.15788C10.6314 3.86765 10.8675 3.63156 11.1577 3.63156H12.8419C13.1322 3.63156 13.3683 3.86765 13.3683 4.15788V18.8946C13.3683 19.1848 13.1322 19.4209 12.8419 19.4209H11.1577C10.8675 19.4209 10.6314 19.1848 10.6314 18.8946V4.15788Z" fill="white"/>
</svg>
