<svg width="24" height="24" viewBox="0 0 24 24" fill="none" xmlns="http://www.w3.org/2000/svg">

<path d="M11.5633 14.5C11.3423 14.5 11.1304 14.5878 10.9741 14.7441C10.8178 14.9004 10.73 15.1123 10.73 15.3333V17.8333C10.73 18.4964 10.4666 19.1323 9.99777 19.6011C9.52893 20.0699 8.89304 20.3333 8.23 20.3333H6.16667C5.50363 20.3333 4.86774 20.0699 4.3989 19.6011C3.93006 19.1323 3.66667 18.4964 3.66667 17.8333V6.16667C3.66667 5.50363 3.93006 4.86774 4.3989 4.3989C4.86774 3.93006 5.50363 3.66667 6.16667 3.66667H8.23C8.89304 3.66667 9.52893 3.93006 9.99777 4.3989C10.4666 4.86774 10.73 5.50363 10.73 6.16667V8.66667C10.73 8.88768 10.8178 9.09964 10.9741 9.25592C11.1304 9.4122 11.3423 9.5 11.5633 9.5C11.7843 9.5 11.9963 9.4122 12.1526 9.25592C12.3089 9.09964 12.3967 8.88768 12.3967 8.66667V6.16667C12.3953 5.062 11.9559 4.00296 11.1748 3.22185C10.3937 2.44073 9.33466 2.00132 8.23 2H6.16667C5.062 2.00132 4.00296 2.44073 3.22185 3.22185C2.44073 4.00296 2.00132 5.062 2 6.16667L2 17.8333C2.00132 18.938 2.44073 19.997 3.22185 20.7782C4.00296 21.5593 5.062 21.9987 6.16667 22H8.23C9.33466 21.9987 10.3937 21.5593 11.1748 20.7782C11.9559 19.997 12.3953 18.938 12.3967 17.8333V15.3333C12.3967 15.1123 12.3089 14.9004 12.1526 14.7441C11.9963 14.5878 11.7843 14.5 11.5633 14.5Z" fill="#241D75"/>
<path d="M21.0532 10.2323L17.2316 6.41066C17.1547 6.33107 17.0627 6.26758 16.9611 6.22391C16.8594 6.18023 16.75 6.15724 16.6394 6.15628C16.5287 6.15532 16.419 6.1764 16.3166 6.21831C16.2142 6.26021 16.1211 6.32208 16.0429 6.40033C15.9647 6.47857 15.9028 6.57161 15.8609 6.67403C15.819 6.77644 15.7979 6.88618 15.7989 6.99682C15.7998 7.10747 15.8228 7.21682 15.8665 7.31849C15.9102 7.42016 15.9736 7.51212 16.0532 7.58899L19.6049 11.1415L6.9974 11.1665C6.77638 11.1665 6.56442 11.2543 6.40814 11.4106C6.25186 11.5668 6.16406 11.7788 6.16406 11.9998C6.16406 12.2208 6.25186 12.4328 6.40814 12.5891C6.56442 12.7454 6.77638 12.8332 6.9974 12.8332L19.6541 12.8073L16.0516 16.4107C15.972 16.4875 15.9085 16.5795 15.8648 16.6812C15.8211 16.7828 15.7981 16.8922 15.7972 17.0028C15.7962 17.1135 15.8173 17.2232 15.8592 17.3256C15.9011 17.428 15.963 17.5211 16.0412 17.5993C16.1195 17.6776 16.2125 17.7394 16.3149 17.7813C16.4173 17.8232 16.5271 17.8443 16.6377 17.8434C16.7484 17.8424 16.8577 17.8194 16.9594 17.7757C17.0611 17.7321 17.153 17.6686 17.2299 17.589L21.0516 13.7673C21.5205 13.2987 21.7841 12.6631 21.7844 12.0002C21.7847 11.3373 21.5217 10.7014 21.0532 10.2323Z" fill="#241D75"/>
</svg>
