<svg width="24" height="24" viewBox="0 0 24 24" fill="none" xmlns="http://www.w3.org/2000/svg">

<path d="M17.8333 5.33278H16.9158C16.5283 3.43393 14.845 2 12.8333 2H6.16667C3.86917 2 2 3.86886 2 6.16597V16.8759C2 17.5374 2.3625 18.1423 2.945 18.4539C3.21 18.5964 3.50083 18.6664 3.79083 18.6664C4.1375 18.6664 4.48333 18.5656 4.7825 18.3664L7.24083 16.7275C7.81667 18.3398 9.35833 19.4971 11.1667 19.4971H15.9142L19.2175 21.6992C19.5175 21.8992 19.8625 22 20.2092 22C20.4992 22 20.7892 21.9292 21.055 21.7867C21.6383 21.4751 22 20.8702 22 20.2086V9.49875C22 7.20163 20.1308 5.33278 17.8333 5.33278ZM3.85833 16.98C3.8425 16.99 3.79583 17.02 3.73167 16.9858C3.66583 16.9508 3.66583 16.895 3.66583 16.8767V6.16597C3.66583 4.78787 4.7875 3.66639 6.16583 3.66639H12.8325C14.2108 3.66639 15.3325 4.78787 15.3325 6.16597V11.9983C15.3325 13.3764 14.2108 14.4979 12.8325 14.4979H7.8325C7.56 14.4979 7.38167 14.6304 7.36167 14.6437L3.85833 16.98ZM20.3333 20.2095C20.3333 20.227 20.3333 20.2836 20.2675 20.3186C20.2017 20.3528 20.1567 20.3228 20.1417 20.3128L16.6292 17.9707C16.4925 17.8799 16.3317 17.8307 16.1667 17.8307H11.1667C10.08 17.8307 9.15417 17.1341 8.81 16.1643H12.8333C15.1308 16.1643 17 14.2955 17 11.9983V6.99917H17.8333C19.2117 6.99917 20.3333 8.12065 20.3333 9.49875V20.2095Z" fill="#241D75"/>
</svg>
