<svg width="24" height="24" viewBox="0 0 24 24" fill="none" xmlns="http://www.w3.org/2000/svg">

<path d="M8.32079 2.05449C8.10251 2.12593 7.72831 2.5099 7.66149 2.7376C7.58576 3.00102 7.58576 7.43455 7.66595 7.53724C7.81741 7.73369 8.06242 7.74709 8.2317 7.5685C8.32079 7.47474 8.32079 7.42116 8.32079 5.20216V2.92959L8.43216 2.82243L8.53907 2.71081H9.67948H10.8154V3.67074C10.8154 4.75568 10.8377 4.85391 11.1094 5.05929L11.2743 5.18877H12.4236C13.515 5.18877 13.5774 5.1843 13.6932 5.09501C13.9961 4.87177 14.0005 4.85837 14.0139 3.73325L14.0273 2.71081H15.1632H16.2992L16.4061 2.82243L16.5175 2.92959V6.81841V10.7072L16.4061 10.8144L16.2992 10.926H12.4191H8.53907L8.43216 10.8144C8.32079 10.7072 8.32079 10.6983 8.32079 9.85446C8.32079 9.01062 8.32079 9.00169 8.20942 8.89454C8.1426 8.8231 8.04905 8.78292 7.96441 8.78292C7.87977 8.78292 7.78622 8.8231 7.7194 8.89454C7.60804 9.00169 7.60804 9.01062 7.60804 9.85893C7.60804 10.3992 7.62585 10.7831 7.66149 10.8992C7.73277 11.1448 8.10251 11.5154 8.34752 11.5868C8.48561 11.627 9.49683 11.6404 12.428 11.6404C16.8516 11.6404 16.5932 11.6627 16.9317 11.2832C17.0387 11.1671 17.15 10.9885 17.1768 10.8903C17.2525 10.6403 17.2525 2.99656 17.1768 2.74653C17.15 2.6483 17.0387 2.46971 16.9317 2.35363C16.5932 1.97412 16.856 1.99645 12.4013 2.00091C9.67502 2.00538 8.4277 2.01877 8.32079 2.05449ZM13.3101 3.60377V4.49673H12.4191H11.5282V3.60377V2.71081H12.4191H13.3101V3.60377Z" fill="white"/>
<path d="M19.6313 10.5831C19.2571 10.6903 19.0388 10.8689 17.9118 12.0074C16.9229 13.003 16.7848 13.1593 16.7848 13.2799C16.7848 13.4406 16.9941 13.6504 17.15 13.6504C17.2124 13.6504 17.6356 13.262 18.4063 12.4941C19.6536 11.2573 19.7249 11.2082 20.108 11.2528C20.7272 11.3198 21.1459 12.0119 20.8831 12.5387C20.8163 12.6726 19.9788 13.5433 18.1479 15.3828C15.876 17.6687 15.4795 18.0482 15.2479 18.1599C14.9984 18.2849 14.789 18.3206 12.0049 18.7046L9.02911 19.1153L8.06244 18.1509C7.53233 17.6196 7.05122 17.1642 6.99776 17.1374C6.8463 17.0615 6.76612 17.0794 6.62357 17.2178C6.36965 17.4723 6.3741 17.4767 7.66151 18.7715L8.8331 19.9458L8.1649 20.6155L7.49669 21.2852L5.68362 19.468L3.8661 17.6464L4.53431 16.9767L5.19806 16.3114L5.30497 16.4097C5.35843 16.4632 5.47425 16.5213 5.54998 16.5347C5.69253 16.5659 5.72817 16.5302 7.17595 15.0926C8.44109 13.829 8.6861 13.6058 8.87765 13.5343C9.08702 13.454 9.26076 13.4495 11.9069 13.4495C14.6331 13.4495 14.7178 13.454 14.8648 13.5388C14.9494 13.5879 15.0786 13.704 15.1543 13.7978C15.2835 13.9585 15.2924 13.9942 15.2924 14.3201C15.2924 14.6461 15.2835 14.6818 15.1543 14.8425C14.8648 15.1997 14.9271 15.1908 12.9983 15.2042C11.84 15.2086 11.252 15.231 11.1852 15.2622C11.1317 15.2935 11.0649 15.3738 11.0337 15.4408C10.9669 15.606 11.0426 15.8069 11.1986 15.8784C11.3411 15.9409 14.495 15.9453 14.7757 15.8784C15.5508 15.6998 16.0319 15.1059 16.0408 14.3157C16.0453 14.0299 16.023 13.9362 15.9027 13.6817C15.68 13.1995 15.2835 12.878 14.7712 12.7575C14.5129 12.6994 9.30085 12.6994 8.98902 12.7575C8.45 12.8602 8.34754 12.9361 6.93985 14.3425L5.62126 15.6596L5.32725 15.6283C5.06442 15.606 5.01096 15.6149 4.83723 15.7176C4.73032 15.7801 4.32048 16.1686 3.92847 16.5838C3.14444 17.4098 3.09989 17.4857 3.1979 17.8563C3.24244 18.0259 3.47854 18.2759 5.12678 19.9413C6.38301 21.2048 7.06458 21.8567 7.18486 21.9147C7.61251 22.1157 7.82188 22.004 8.68164 21.1155C9.05584 20.7316 9.39885 20.3521 9.4434 20.2806C9.48795 20.2047 9.52358 20.0619 9.52358 19.9592C9.52358 19.7806 9.52804 19.7761 9.69286 19.7493C9.78196 19.7315 11.0159 19.5618 12.4325 19.3654C13.8491 19.1689 15.092 18.9858 15.1944 18.9591C15.6889 18.8296 15.7646 18.7626 18.6602 15.8471C21.8141 12.6816 21.6582 12.8736 21.6582 12.1771C21.6627 11.7083 21.5379 11.4046 21.1949 11.043C20.7985 10.6188 20.1614 10.4358 19.6313 10.5831Z" fill="white"/>
</svg>
