<svg width="24" height="24" viewBox="0 0 24 24" fill="none" xmlns="http://www.w3.org/2000/svg">

<path d="M8.12931 2.05449C7.91231 2.12593 7.54032 2.5099 7.47389 2.7376C7.39861 3.00102 7.39861 7.43455 7.47832 7.53724C7.62889 7.73369 7.87246 7.74709 8.04074 7.5685C8.12931 7.47474 8.12931 7.42116 8.12931 5.20216V2.92959L8.24002 2.82243L8.34631 2.71081H9.48H10.6093V3.67074C10.6093 4.75568 10.6314 4.85391 10.9016 5.05929L11.0654 5.18877H12.208C13.2929 5.18877 13.3549 5.1843 13.4701 5.09501C13.7712 4.87177 13.7757 4.85837 13.7889 3.73325L13.8022 2.71081H14.9315H16.0608L16.167 2.82243L16.2778 2.92959V6.81841V10.7072L16.167 10.8144L16.0608 10.926H12.2035H8.34631L8.24002 10.8144C8.12931 10.7072 8.12931 10.6983 8.12931 9.85446C8.12931 9.01062 8.12931 9.00169 8.0186 8.89454C7.95217 8.8231 7.85917 8.78292 7.77503 8.78292C7.69089 8.78292 7.59789 8.8231 7.53146 8.89454C7.42075 9.00169 7.42075 9.01062 7.42075 9.85893C7.42075 10.3992 7.43846 10.7831 7.47389 10.8992C7.54475 11.1448 7.91231 11.5154 8.15588 11.5868C8.29316 11.627 9.29844 11.6404 12.2124 11.6404C16.6099 11.6404 16.353 11.6627 16.6896 11.2832C16.7959 11.1671 16.9066 10.9885 16.9332 10.8903C17.0085 10.6403 17.0085 2.99656 16.9332 2.74653C16.9066 2.6483 16.7959 2.46971 16.6896 2.35363C16.353 1.97412 16.6143 1.99645 12.1858 2.00091C9.47558 2.00538 8.23559 2.01877 8.12931 2.05449ZM13.0892 3.60377V4.49673H12.2035H11.3178V3.60377V2.71081H12.2035H13.0892V3.60377Z" fill="#241D75"/>
<path d="M19.3743 10.5831C19.0023 10.6903 18.7853 10.8689 17.6649 12.0074C16.6817 13.003 16.5445 13.1593 16.5445 13.2799C16.5445 13.4406 16.7526 13.6504 16.9076 13.6504C16.9696 13.6504 17.3903 13.262 18.1564 12.4941C19.3964 11.2573 19.4673 11.2082 19.8481 11.2528C20.4637 11.3198 20.88 12.0119 20.6187 12.5387C20.5523 12.6726 19.7197 13.5433 17.8996 15.3828C15.641 17.6687 15.2469 18.0482 15.0166 18.1599C14.7686 18.2849 14.5605 18.3206 11.7927 18.7046L8.83443 19.1153L7.87345 18.1509C7.34645 17.6196 6.86818 17.1642 6.81503 17.1374C6.66446 17.0615 6.58475 17.0794 6.44304 17.2178C6.19061 17.4723 6.19504 17.4767 7.47488 18.7715L8.63958 19.9458L7.9753 20.6155L7.31103 21.2852L5.50862 19.468L3.70179 17.6464L4.36607 16.9767L5.02592 16.3114L5.1322 16.4097C5.18534 16.4632 5.30048 16.5213 5.37577 16.5347C5.51748 16.5659 5.55291 16.5302 6.99217 15.0926C8.24987 13.829 8.49344 13.6058 8.68386 13.5343C8.892 13.454 9.06471 13.4495 11.6952 13.4495C14.4055 13.4495 14.4896 13.454 14.6358 13.5388C14.7199 13.5879 14.8483 13.704 14.9236 13.7978C15.0521 13.9585 15.0609 13.9942 15.0609 14.3201C15.0609 14.6461 15.0521 14.6818 14.9236 14.8425C14.6358 15.1997 14.6978 15.1908 12.7802 15.2042C11.6288 15.2086 11.0443 15.231 10.9778 15.2622C10.9247 15.2935 10.8583 15.3738 10.8273 15.4408C10.7608 15.606 10.8361 15.8069 10.9911 15.8784C11.1328 15.9409 14.2682 15.9453 14.5472 15.8784C15.3178 15.6998 15.796 15.1059 15.8049 14.3157C15.8093 14.0299 15.7872 13.9362 15.6676 13.6817C15.4462 13.1995 15.0521 12.878 14.5428 12.7575C14.2859 12.6994 9.10457 12.6994 8.79458 12.7575C8.25873 12.8602 8.15687 12.9361 6.75746 14.3425L5.44662 15.6596L5.15434 15.6283C4.89306 15.606 4.83992 15.6149 4.66721 15.7176C4.56092 15.7801 4.1535 16.1686 3.76379 16.5838C2.98437 17.4098 2.94009 17.4857 3.03752 17.8563C3.0818 18.0259 3.31651 18.2759 4.95506 19.9413C6.2039 21.2048 6.88146 21.8567 7.00103 21.9147C7.42617 22.1157 7.63431 22.004 8.48901 21.1155C8.861 20.7316 9.202 20.3521 9.24628 20.2806C9.29057 20.2047 9.326 20.0619 9.326 19.9592C9.326 19.7806 9.33043 19.7761 9.49428 19.7493C9.58285 19.7315 10.8095 19.5618 12.2178 19.3654C13.6261 19.1689 14.8616 18.9858 14.9635 18.9591C15.4551 18.8296 15.5303 18.7626 18.4089 15.8471C21.5442 12.6816 21.3892 12.8736 21.3892 12.1771C21.3937 11.7083 21.2697 11.4046 20.9287 11.043C20.5345 10.6188 19.9013 10.4358 19.3743 10.5831Z" fill="#241D75"/>
</svg>
