<svg width="24" height="24" viewBox="0 0 24 24" fill="none" xmlns="http://www.w3.org/2000/svg">

<path d="M3.83519 2.09688C3.75569 2.14709 3.6469 2.25588 3.59669 2.33119L3.50046 2.47345V11.072C3.50046 20.6788 3.47535 19.9131 3.79753 20.5408C4.00674 20.9466 4.30382 21.273 4.69295 21.5324C5.05697 21.7793 5.40845 21.9048 5.88963 21.9592C6.36244 22.0136 18.643 22.0136 19.0656 21.9592C19.9443 21.842 20.6305 21.1726 20.7811 20.2855C20.9485 19.2981 20.2916 18.3064 19.2958 18.047C19.1451 18.0093 18.869 17.9842 18.597 17.9842H18.1451L18.1367 11.0678L18.1242 4.1555L18.007 3.82076C17.7267 3.02158 17.1158 2.41069 16.3041 2.1178L16.0321 2.02156L10.0027 2.00901L3.97745 2.00064L3.83519 2.09688ZM16.053 3.46092C16.3082 3.59482 16.5384 3.82076 16.6723 4.07181L16.7852 4.28102L16.7978 11.1305L16.8062 17.9842H12.3835C7.59259 17.9842 7.68464 17.98 7.23275 18.2102C6.96915 18.3441 6.6386 18.6453 6.47123 18.9047C6.2662 19.2269 6.17834 19.5659 6.14905 20.1516L6.12394 20.6621L5.97331 20.637C5.75155 20.5993 5.421 20.4403 5.25363 20.2939C5.17413 20.2228 5.05279 20.0638 4.98166 19.9424L4.86032 19.7207L4.84776 11.528L4.8394 3.33958L10.35 3.34795L15.8647 3.3605L16.053 3.46092ZM19.1744 19.432C19.3585 19.5659 19.4506 19.7165 19.4715 19.9131C19.4966 20.1516 19.3543 20.4403 19.1493 20.5575C19.0029 20.6412 18.9485 20.6412 13.2496 20.6412H7.49635L7.4838 20.3065C7.46706 19.9341 7.51309 19.7248 7.65117 19.5533C7.83946 19.3148 7.52983 19.3232 13.5299 19.3357C19.0405 19.3441 19.0614 19.3441 19.1744 19.432Z" fill="white"/>
<path d="M6.46846 4.7757C6.0626 5.04767 6.0626 5.60835 6.46846 5.88033L6.60654 5.97656H10.8158C14.9414 5.97656 15.0293 5.97656 15.1632 5.89288C15.5607 5.6502 15.5649 5.04349 15.1716 4.77152L15.0335 4.67946H10.82H6.60654L6.46846 4.7757Z" fill="white"/>
<path d="M6.61546 7.35943C6.44809 7.40546 6.23888 7.63977 6.18448 7.83224C6.10917 8.12095 6.24725 8.43058 6.51504 8.57284C6.65311 8.64816 6.84977 8.65234 10.8164 8.65234C14.9462 8.65234 14.9796 8.65234 15.1303 8.56448C15.352 8.43895 15.4399 8.2925 15.4608 8.02472C15.4817 7.73601 15.3688 7.54772 15.0926 7.40546L14.9085 7.3134L10.8247 7.31759C8.50671 7.31759 6.68659 7.33851 6.61546 7.35943Z" fill="white"/>
<path d="M6.50351 10.0748C6.14785 10.2673 6.05161 10.7652 6.31103 11.0623C6.55372 11.3343 6.49932 11.3301 8.82154 11.3301C10.7839 11.3301 10.9387 11.3217 11.0977 11.2506C11.2818 11.1669 11.4325 10.9661 11.4743 10.7485C11.512 10.556 11.3906 10.2631 11.2065 10.125L11.0601 10.0121L8.8592 10.0037C6.75037 9.99532 6.64995 9.99532 6.50351 10.0748Z" fill="white"/>
</svg>
