<svg width="24" height="24" viewBox="0 0 24 24" fill="none" xmlns="http://www.w3.org/2000/svg">

<path d="M8.0102 2.09976C6.32475 2.36724 5.0372 3.6049 4.69743 5.29138C4.60802 5.74927 4.63037 6.55624 4.74661 7.01413C5.05508 8.21552 5.94922 9.2401 7.10265 9.70252C7.54078 9.88387 7.9789 9.96094 8.52433 9.96094C9.35587 9.96094 10.0175 9.76146 10.6881 9.30811C12.2037 8.28352 12.8117 6.32503 12.15 4.58414C11.8773 3.87238 11.3185 3.16514 10.6792 2.73445C10.0488 2.3083 9.44975 2.12242 8.65845 2.09522C8.37679 2.08616 8.0862 2.09069 8.0102 2.09976ZM9.33799 3.6729C10.3349 4.04012 10.9832 4.9695 10.9832 6.02581C10.9832 7.1456 10.2187 8.16565 9.17257 8.43766C8.84174 8.52833 8.22032 8.52833 7.9029 8.4422C7.125 8.23365 6.45887 7.61256 6.1951 6.85545C6.06546 6.47917 6.03416 5.85807 6.12804 5.45459C6.35158 4.50254 7.14289 3.74544 8.12196 3.55049C8.39468 3.49609 9.04292 3.56409 9.33799 3.6729Z" fill="#241D75"/>
<path d="M4.63479 10.3935C4.17431 10.6066 3.49924 11.273 3.06111 11.9531C2.52016 12.7918 2.36816 13.3222 2.18039 14.9724C2.02839 16.2962 1.94792 18.6582 2.03733 19.1433C2.1938 20.0001 2.90464 20.7255 3.74066 20.8887C3.9016 20.9204 5.60046 20.934 8.71204 20.934L13.4375 20.9295L13.6968 21.1063C14.2289 21.4735 14.9129 21.7637 15.5879 21.9133C16.111 22.0312 17.2019 22.0266 17.7339 21.9133C19.8485 21.4554 21.4311 19.846 21.9229 17.6608C22.0257 17.1939 22.0257 15.9607 21.9229 15.5028C21.4848 13.5806 20.233 12.1163 18.4626 11.4634C17.8501 11.2368 17.4254 11.1642 16.6609 11.1688C15.6997 11.1688 15.0649 11.3138 14.2736 11.7173L13.9606 11.876L13.8712 11.7491C13.4644 11.1824 12.8832 10.6383 12.4674 10.4298C12.1455 10.2711 11.9309 10.2983 11.5777 10.5431C10.9966 10.9421 10.3036 11.2413 9.5883 11.3954C9.0697 11.5133 7.97438 11.5088 7.45131 11.3954C6.7673 11.2458 6.02964 10.9285 5.46634 10.5386C5.15786 10.3255 4.88962 10.2802 4.63479 10.3935ZM5.45739 12.207C6.02517 12.4971 6.73154 12.7374 7.32614 12.8507C7.90285 12.9595 9.15017 12.9595 9.73136 12.8507C10.3125 12.7419 11.1441 12.4518 11.6493 12.1843C11.8773 12.0573 12.0963 11.9576 12.1276 11.9576C12.1858 11.9576 12.5211 12.3248 12.7088 12.6014L12.8251 12.7646L12.5345 13.1182C11.162 14.7729 10.9161 17.1349 11.9041 19.0753C11.998 19.2612 12.0829 19.4289 12.0919 19.4516C12.1008 19.4697 10.2589 19.4788 8.00121 19.4742L3.88819 19.4606L3.73171 19.3382C3.43665 19.107 3.40983 18.9619 3.44112 17.6563C3.47242 16.3506 3.51712 15.7749 3.6736 14.578C3.79878 13.626 3.89713 13.3041 4.21008 12.7963C4.42914 12.4427 4.83597 11.9576 4.91644 11.9576C4.94774 11.9576 5.18915 12.0709 5.45739 12.207ZM17.3539 12.6603C19.2897 13.0049 20.6934 14.8001 20.5817 16.7858C20.5236 17.8104 20.1257 18.7081 19.4148 19.4153C17.8769 20.9567 15.4181 20.9476 13.8891 19.3926C12.9681 18.4633 12.5702 17.1848 12.7938 15.8791C13.1648 13.7257 15.2124 12.284 17.3539 12.6603Z" fill="#241D75"/>
<path d="M16.3472 13.3249C16.1907 13.4065 16.1192 13.479 16.0342 13.6603C15.9359 13.8644 15.8912 13.9052 15.6497 14.014C15.2831 14.1772 14.9881 14.4718 14.8137 14.8481C14.693 15.1156 14.6751 15.1972 14.6707 15.5599C14.6707 16.0677 14.778 16.3442 15.0998 16.648C15.377 16.9109 15.7392 17.0832 16.3919 17.26C16.9865 17.4187 17.2413 17.5229 17.2413 17.6C17.2413 17.6317 17.2011 17.7043 17.1564 17.7632C17.0759 17.8629 17.0356 17.872 16.6735 17.872C16.3025 17.872 16.2533 17.8584 15.8733 17.6771C15.6497 17.5728 15.4173 17.4867 15.3591 17.4867C15.2966 17.4867 15.158 17.532 15.0507 17.5864C14.6796 17.7768 14.5365 18.2982 14.769 18.6155C14.9031 18.7923 15.2161 18.9918 15.5737 19.1187C15.8867 19.2321 15.9046 19.2457 16.0208 19.4814C16.1192 19.6764 16.1907 19.7534 16.3472 19.8305C16.5975 19.962 16.7227 19.962 16.9731 19.835C17.1295 19.7534 17.1966 19.6809 17.286 19.495C17.3799 19.3001 17.4291 19.2502 17.599 19.1822C18.2919 18.9102 18.6406 18.3798 18.6451 17.6C18.6451 17.0877 18.5378 16.8157 18.2159 16.5119C17.9432 16.249 17.5945 16.0858 16.9105 15.9045C16.0566 15.6732 15.9627 15.6098 16.1683 15.4012C16.3829 15.1836 16.906 15.2199 17.4469 15.4919C17.7688 15.6551 17.8583 15.6823 18.0237 15.6642C18.131 15.6506 18.283 15.5916 18.359 15.5372C18.5154 15.4239 18.6719 15.1292 18.6719 14.9479C18.6719 14.7393 18.511 14.4673 18.3098 14.3268C18.0863 14.1772 17.599 13.9505 17.4961 13.9505C17.4604 13.9505 17.3754 13.8326 17.3039 13.6875C17.2011 13.479 17.134 13.411 16.9731 13.3249C16.8658 13.2705 16.7227 13.2251 16.6601 13.2251C16.5975 13.2251 16.4545 13.2705 16.3472 13.3249Z" fill="#241D75"/>
</svg>
